<svg version="1.1" id="Layer_1" xmlns="http://www.w3.org/2000/svg" xmlns:xlink="http://www.w3.org/1999/xlink" x="0px" y="0px"
	 width="100%" viewBox="0 0 672 1024" enable-background="new 0 0 672 1024" xml:space="preserve">
<path fill="#000000" opacity="1.000000" stroke="none" 
	d="
M418.320984,459.000092 
	C418.319885,485.997620 418.123352,512.497192 418.405670,538.991699 
	C418.534576,551.090881 410.980347,557.726013 402.302460,563.655884 
	C398.959290,565.940369 395.612610,564.073669 392.802399,561.583435 
	C387.816376,557.164978 382.722412,552.865601 377.817627,548.359558 
	C375.806183,546.511597 374.221954,546.469666 372.263855,548.306396 
	C367.769562,552.522217 363.229858,556.691833 358.631042,560.793213 
	C353.151581,565.679871 350.231659,565.713196 344.757416,560.856384 
	C340.646271,557.208984 336.586426,553.490662 332.698822,549.608521 
	C329.703796,546.617676 327.258820,545.919678 324.004120,549.476257 
	C320.304321,553.519287 316.022491,557.026062 312.043060,560.817749 
	C306.250916,566.336609 303.395782,566.463745 297.537994,561.213379 
	C293.071136,557.209717 288.553955,553.249695 284.290558,549.036133 
	C281.596680,546.373718 279.245178,546.343628 276.527649,548.764893 
	C272.672058,552.199951 268.761688,555.573730 264.864624,558.962036 
	C258.521881,564.476868 255.838181,564.351013 249.222107,559.130005 
	C241.903839,553.354797 238.658783,546.293457 238.688904,536.715149 
	C238.945267,455.223572 238.842545,373.730865 238.865784,292.238525 
	C238.869431,279.472290 244.494644,271.368256 255.200592,268.316040 
	C257.174713,267.753296 259.133179,267.681549 261.128265,267.681519 
	C313.790009,267.680725 366.451721,267.687531 419.113464,267.685486 
	C425.818909,267.685211 431.893250,269.451141 437.214996,273.694916 
	C442.918243,278.242859 446.002106,284.005432 445.997681,291.362457 
	C445.987396,308.527435 446.089478,325.693085 445.960968,342.857086 
	C445.894135,351.786713 440.480286,354.750763 432.733521,350.361267 
	C430.849213,349.293549 428.986816,348.187225 427.108154,347.109436 
	C422.646942,344.550049 418.936432,346.396149 418.378632,351.514130 
	C418.216949,352.997528 418.319855,354.510986 418.319794,356.010651 
	C418.318726,390.173798 418.320129,424.336914 418.320984,459.000092 
M253.156036,356.500000 
	C253.150284,415.804016 253.142502,475.108032 253.146347,534.412048 
	C253.146500,536.742188 253.035904,539.104004 253.362411,541.396057 
	C254.087936,546.489380 256.877594,547.643250 260.770447,544.441345 
	C265.141968,540.845703 269.238617,536.912415 273.653351,533.373718 
	C279.198608,528.928833 282.531281,529.086426 287.764252,533.765015 
	C291.860626,537.427368 296.022064,541.045105 299.821564,545.002441 
	C302.977142,548.289062 305.453491,548.875061 308.796967,545.176575 
	C312.360352,541.234802 316.492767,537.811768 320.316620,534.100342 
	C326.350067,528.244202 329.229675,528.101074 335.653320,533.761597 
	C340.025085,537.614075 344.302246,541.579407 348.504578,545.616272 
	C350.762787,547.785522 352.636963,547.784546 354.913879,545.610779 
	C359.249786,541.471558 363.688843,537.433838 368.206726,533.493530 
	C373.024658,529.291626 376.535278,529.218384 381.504181,533.319397 
	C385.740662,536.815918 389.787170,540.545044 393.876129,544.217468 
	C399.388672,549.168396 402.698486,548.058716 404.310547,540.594910 
	C404.622803,539.149292 404.634766,537.619629 404.635895,536.128662 
	C404.699646,451.419006 404.429749,366.707794 404.838379,281.374237 
	C403.886841,280.866119 401.679291,281.351562 399.560577,281.350067 
	C354.915985,281.318115 310.271362,281.326508 265.626740,281.323578 
	C255.442383,281.322906 253.158707,283.580780 253.142181,294.030426 
	C253.109772,314.520203 253.147675,335.010132 253.156036,356.500000 
M431.780334,316.495728 
	C431.776550,308.362305 431.689392,300.227692 431.803711,292.095917 
	C431.862030,287.950165 430.872894,284.787506 426.115173,284.375214 
	C422.241943,284.039551 418.685516,286.785797 418.558014,291.346802 
	C418.220642,303.414886 418.443665,315.498657 418.443665,328.259125 
	C423.768921,326.554871 426.489807,331.952789 431.298981,332.061005 
	C432.232056,327.061249 431.566620,322.256592 431.780334,316.495728 
z"/>
<path fill="#000000" opacity="1.000000" stroke="none" 
	d="
M192.013107,392.239502 
	C190.260040,399.564667 191.023712,406.612427 191.477173,413.533264 
	C193.141052,438.927704 195.273621,464.291199 197.173279,489.670593 
	C198.550720,508.072968 200.023972,526.471252 201.101700,544.892029 
	C201.815506,557.092163 193.004761,566.919983 181.729126,567.242493 
	C170.438156,567.565430 161.254318,558.131775 161.815979,545.638550 
	C162.569946,528.867798 164.122543,512.132935 165.332870,495.382690 
	C166.447479,479.957214 167.597046,464.534149 168.667923,449.105621 
	C169.658218,434.838013 170.351852,420.546356 171.571701,406.299164 
	C172.652344,393.677917 169.296921,383.436584 158.334641,376.052246 
	C141.897720,364.980103 136.721542,349.182861 139.208481,329.963837 
	C140.614410,319.098724 140.903687,308.087799 141.655182,297.139801 
	C142.076614,291.000305 142.489212,284.858551 142.771530,278.711639 
	C143.102158,271.512451 145.114777,268.536133 149.771286,268.714630 
	C154.409790,268.892395 156.357040,272.315247 156.096939,279.201721 
	C155.443451,296.503876 154.900986,313.810272 154.318451,331.115082 
	C154.290421,331.947479 154.334641,332.782745 154.294296,333.614227 
	C154.135269,336.891754 154.697754,340.117035 158.678299,340.046875 
	C162.328140,339.982574 162.732330,336.848785 162.791855,333.788940 
	C163.138504,315.969788 163.531113,298.151428 163.968903,280.334290 
	C164.030045,277.845215 164.173706,275.306305 164.729996,272.894440 
	C165.418991,269.907227 167.681000,268.635040 170.712509,268.694458 
	C173.558121,268.750214 175.606552,270.105469 176.245010,272.829742 
	C176.770340,275.071381 176.877167,277.451996 176.872604,279.770416 
	C176.838837,296.928528 177.167007,314.088470 176.477692,331.244507 
	C176.327759,334.975647 175.845673,340.128662 181.214417,339.987732 
	C186.037186,339.861084 185.628052,334.960999 185.586502,331.314697 
	C185.389099,313.991241 185.115173,296.668610 184.891037,279.345428 
	C184.863113,277.186829 184.739182,275.005554 185.522232,272.917480 
	C186.578964,270.099548 188.571274,268.635986 191.612518,268.708954 
	C194.641083,268.781586 196.759247,270.167633 197.349472,273.217438 
	C197.789291,275.490173 198.056152,277.823822 198.117889,280.137878 
	C198.584335,297.620850 197.814697,315.127014 199.105728,332.595490 
	C199.191650,333.757996 199.176590,334.929626 199.298889,336.087433 
	C199.566071,338.617126 201.114761,340.219971 203.537827,340.125549 
	C205.914291,340.032990 207.540619,338.406403 207.587601,335.856293 
	C207.667358,331.526093 207.924652,327.160889 207.515091,322.866913 
	C206.120392,308.243896 207.245178,293.549530 206.072067,278.926117 
	C205.940308,277.283691 206.055817,275.577423 206.350143,273.954010 
	C206.965057,270.562256 209.044266,268.678528 212.580521,268.704681 
	C215.862640,268.728973 217.706848,270.418427 218.554459,273.618958 
	C219.896332,278.685944 219.431656,283.893982 219.871811,289.014221 
	C221.338562,306.076508 222.514923,323.176514 223.238739,340.285919 
	C223.811340,353.821198 217.882050,364.700775 207.750122,373.474243 
	C201.614685,378.787048 194.702332,383.481323 192.013107,392.239502 
z"/>
<path fill="#000000" opacity="1.000000" stroke="none" 
	d="
M459.458618,384.474854 
	C460.749176,352.018921 464.358765,320.399078 474.678864,289.870972 
	C477.296753,282.127014 480.445435,274.607025 485.026428,267.768402 
	C487.204620,264.516693 489.932159,262.203583 494.140137,263.008118 
	C498.615784,263.863770 500.986389,266.938721 501.778900,271.220428 
	C502.169037,273.328278 502.214050,275.521637 502.216400,277.676514 
	C502.273285,330.313660 501.989319,382.953918 502.507416,435.586334 
	C502.690399,454.175171 504.820923,472.744812 506.061890,491.323212 
	C506.815460,502.604980 507.616882,513.883850 508.302704,525.169739 
	C508.695831,531.638672 509.152039,538.103394 509.470093,544.579834 
	C510.130981,558.039795 500.117310,567.610229 488.932190,567.235107 
	C477.278015,566.844238 469.037720,556.690002 469.999329,543.553650 
	C472.074677,515.203247 474.412872,486.872223 476.535645,458.525177 
	C477.156647,450.232666 477.410339,441.912750 477.839966,433.605774 
	C478.003754,430.438354 477.346985,427.446960 474.601562,425.643311 
	C459.555573,415.758453 458.378418,400.775970 459.458618,384.474854 
z"/>
<path fill="#000000" opacity="1.000000" stroke="none" 
	d="
M513.635742,627.333252 
	C524.816223,638.901917 527.188843,655.117004 520.350403,668.561218 
	C513.352234,682.319397 493.530304,690.692749 477.277771,678.241760 
	C475.745239,679.090576 476.382690,680.583435 476.366760,681.776550 
	C476.291199,687.437805 476.353394,693.100647 476.320526,698.762695 
	C476.312836,700.085571 476.621918,701.801514 475.937439,702.663269 
	C472.515625,706.971619 467.636414,704.580933 463.380096,704.891663 
	C460.649597,705.091003 459.191681,703.157043 459.001617,700.451111 
	C458.896759,698.958252 458.900909,697.455994 458.900391,695.957947 
	C458.892883,674.141724 458.815369,652.325012 458.973999,630.509949 
	C458.997955,627.213379 457.109985,622.723572 462.251038,621.201050 
	C468.534973,619.340210 474.059357,621.153687 476.983978,625.880676 
	C489.358429,617.814819 501.533356,617.892700 513.635742,627.333252 
M484.253235,667.540466 
	C497.272156,672.226135 507.124207,664.275574 505.384460,650.487854 
	C504.101654,640.321472 499.880463,635.517700 492.099609,635.369812 
	C485.128357,635.237366 479.622406,639.177063 477.437164,645.861450 
	C474.702759,654.225464 477.055664,662.389954 484.253235,667.540466 
z"/>
<path fill="#000000" opacity="1.000000" stroke="none" 
	d="
M429.287048,616.620972 
	C424.154968,614.537109 419.416565,612.665161 414.022339,614.221191 
	C409.935303,615.400146 406.962311,617.652832 406.555267,621.915710 
	C406.145386,626.208252 409.210022,628.671997 412.796051,629.991760 
	C417.779541,631.825806 422.948730,633.150208 428.017487,634.758789 
	C433.280975,636.429199 438.344940,638.460388 442.424866,642.420044 
	C454.480621,654.120544 450.981659,673.314636 435.038239,680.397705 
	C419.543671,687.281433 404.479919,685.385559 390.425323,676.084961 
	C385.009796,672.501343 384.951508,670.732178 389.036713,665.730530 
	C389.984406,664.570251 391.026520,663.485718 391.951019,662.308105 
	C394.016174,659.677490 396.021637,659.617676 398.698730,661.735229 
	C405.048157,666.757629 412.278107,669.322205 420.511169,668.717590 
	C426.156708,668.302979 430.329865,665.522766 431.211090,661.350403 
	C432.030487,657.470642 429.365906,653.521545 423.831055,651.412537 
	C417.776245,649.105347 411.469940,647.458191 405.415009,645.151306 
	C397.362579,642.083496 390.583862,637.590942 388.575897,628.305908 
	C386.575348,619.055237 390.669769,609.356018 398.922974,604.288269 
	C411.079346,596.823975 429.950073,597.534241 441.510712,606.007019 
	C444.156189,607.945862 447.276062,609.806274 444.286438,614.023865 
	C439.493164,620.785828 437.487061,621.692139 432.625824,618.576904 
	C431.646271,617.949158 430.621307,617.392334 429.287048,616.620972 
z"/>
<path fill="#000000" opacity="1.000000" stroke="none" 
	d="
M374.596558,683.026611 
	C359.151642,683.402405 360.785980,683.602600 360.740570,670.132690 
	C360.716400,662.971985 360.766449,655.810791 360.706726,648.650513 
	C360.637329,640.331726 356.470276,635.450256 349.593658,635.503967 
	C343.670563,635.550232 338.597626,641.218567 338.411713,648.612000 
	C338.181488,657.765442 338.361053,666.928833 338.328949,676.087830 
	C338.306458,682.514832 337.699554,683.083435 331.088959,683.142456 
	C329.756897,683.154358 328.417542,683.045349 327.093597,683.147766 
	C322.331390,683.516052 320.621521,681.287964 320.643738,676.619934 
	C320.760162,652.140686 320.765259,627.660156 320.626160,603.181152 
	C320.600586,598.685364 322.232574,596.942688 326.731110,596.866272 
	C338.301941,596.669556 338.318329,596.555298 338.326111,608.226135 
	C338.329865,613.877136 338.326721,619.528076 338.326721,625.783447 
	C342.615906,623.595581 346.216400,621.164307 350.710846,620.481079 
	C365.681488,618.205383 378.100372,628.194092 378.307190,643.216614 
	C378.463043,654.538452 378.334290,665.864197 378.355347,677.188171 
	C378.360168,679.774170 378.401855,682.326843 374.596558,683.026611 
z"/>
<path fill="#000000" opacity="1.000000" stroke="none" 
	d="
M245.344803,682.530884 
	C230.410034,684.505676 229.928055,684.077209 229.966583,669.650513 
	C229.987015,661.996155 230.097214,654.339172 229.938766,646.688049 
	C229.794525,639.721802 226.691788,635.958252 221.095306,635.414185 
	C215.293488,634.850098 209.542648,639.062927 208.344589,645.071594 
	C206.340515,655.122620 207.634460,665.311646 207.385208,675.436157 
	C207.203857,682.803345 207.087051,683.089844 199.884903,683.145691 
	C198.221176,683.158569 196.557083,683.132080 194.893234,683.116455 
	C191.879730,683.088196 190.135086,681.571533 190.127167,678.557739 
	C190.080872,660.920837 190.087921,643.283630 190.127609,625.646729 
	C190.134293,622.671204 191.772049,620.737549 194.772430,621.019592 
	C199.259521,621.441467 205.228683,618.266357 207.035721,625.963196 
	C215.560226,619.706055 224.518921,618.143921 234.063904,622.235107 
	C242.637756,625.910095 246.744614,633.125671 247.149200,641.924072 
	C247.714249,654.211914 247.302124,666.544739 247.301102,678.858337 
	C247.300995,680.235107 247.037720,681.514343 245.344803,682.530884 
z"/>
<path fill="#000000" opacity="1.000000" stroke="none" 
	d="
M139.301102,636.011414 
	C139.310562,643.669434 139.252243,650.831055 139.348145,657.990662 
	C139.433716,664.378540 142.419342,668.190674 147.504425,668.703186 
	C153.699814,669.327637 158.074707,666.262451 159.766220,660.196472 
	C160.399246,657.926392 160.626007,655.642578 160.614441,653.292419 
	C160.570221,644.299988 160.591690,635.307312 160.589569,626.314697 
	C160.589035,624.078796 160.631927,621.723999 163.469086,621.266907 
	C167.093964,620.682922 170.774368,620.750793 174.413803,621.235229 
	C176.639008,621.531433 177.325180,623.146301 177.324295,625.212463 
	C177.316589,643.031006 177.303024,660.849609 177.344879,678.668030 
	C177.351730,681.583679 175.965240,683.201050 173.172150,683.044067 
	C168.797318,682.798279 163.428436,685.230652 161.176788,678.502991 
	C155.108871,682.860107 148.713852,685.043396 141.691498,684.105957 
	C129.446762,682.471436 122.296593,674.150635 121.826836,660.500122 
	C121.431877,649.022888 121.767891,637.521729 121.687569,626.031799 
	C121.664062,622.669861 123.263138,621.140503 126.470490,620.989990 
	C126.636795,620.982239 126.803246,620.975281 126.969208,620.962524 
	C139.160965,620.024353 139.319229,620.211121 139.301102,636.011414 
z"/>
<path fill="#000000" opacity="1.000000" stroke="none" 
	d="
M60.964516,657.000000 
	C60.975723,640.020813 60.948372,623.541382 61.017521,607.062439 
	C61.045704,600.346558 61.761650,599.743347 68.554054,599.715088 
	C79.348877,599.670044 79.347427,599.670105 79.347252,610.639709 
	C79.346985,627.618286 79.447350,644.597900 79.275887,661.574768 
	C79.236450,665.478516 80.448433,666.874573 84.398949,666.768616 
	C92.715553,666.545593 101.044411,666.818481 109.364815,666.681091 
	C113.442886,666.613892 115.206787,668.374390 115.012459,672.356445 
	C114.939499,673.851501 114.884796,675.357239 114.975349,676.848755 
	C115.243103,681.259277 113.323448,683.216797 108.809700,683.177063 
	C94.994888,683.055481 81.177277,683.028381 67.363091,683.179016 
	C62.514973,683.231812 60.869755,680.980225 60.958069,676.475342 
	C61.082012,670.152649 60.973736,663.825317 60.964516,657.000000 
z"/>
<path fill="#000000" opacity="1.000000" stroke="none" 
	d="
M307.686462,677.745850 
	C288.605621,690.416809 264.782471,684.043457 257.168121,664.535706 
	C251.972183,651.223877 256.355072,634.492859 267.083832,626.684265 
	C279.280762,617.806946 297.303284,617.905762 308.548767,626.911377 
	C313.130981,630.580872 313.199615,631.757324 309.062805,635.875000 
	C308.236938,636.697083 307.301544,637.429810 306.583710,638.336060 
	C303.801605,641.848450 301.409271,642.337769 297.642090,638.965332 
	C293.195709,634.984863 287.563293,634.063599 281.778198,636.665039 
	C275.887970,639.313721 273.708923,644.329712 273.311523,650.304260 
	C272.434814,663.484314 279.623871,670.661316 291.570770,668.751770 
	C294.680115,668.254883 297.205322,666.696655 299.324707,664.532776 
	C301.404449,662.409424 303.273590,662.426270 305.319183,664.450867 
	C306.145905,665.269104 307.053864,666.006226 307.935425,666.768066 
	C313.553375,671.622864 313.556976,672.313721 307.686462,677.745850 
z"/>
<path fill="#000000" opacity="1.000000" stroke="none" 
	d="
M632.357849,681.066162 
	C615.624084,689.660828 599.994202,680.841248 599.040588,662.550659 
	C598.676941,655.574463 598.833740,648.563049 598.972412,641.572021 
	C599.043884,637.969055 598.214294,635.881470 594.004883,636.114746 
	C589.663818,636.355225 588.859070,633.246765 588.965393,629.737000 
	C589.077820,626.023132 588.043152,621.327393 593.850708,621.189026 
	C598.239319,621.084290 599.428101,618.946228 598.887939,615.211304 
	C598.104614,609.795288 600.140808,607.065430 605.787415,607.195129 
	C607.600952,607.236816 609.435059,606.907166 611.241516,606.629333 
	C614.820801,606.078735 616.723938,607.299316 616.314453,611.170654 
	C616.262268,611.664429 616.309814,612.169128 616.315857,612.668640 
	C616.410583,620.497070 614.885986,621.065857 624.270813,621.021057 
	C630.111450,620.993103 631.120178,622.271057 631.088379,628.742310 
	C631.057068,635.115295 630.108093,636.118042 624.017334,636.213745 
	C616.315613,636.334778 616.311340,636.334778 616.309326,644.208374 
	C616.308044,649.370911 616.228699,654.535645 616.350037,659.695496 
	C616.525330,667.152405 619.600525,669.908508 626.757996,668.343689 
	C630.455811,667.535278 631.844421,668.904053 632.171448,672.018188 
	C632.475830,674.916809 634.300293,677.765259 632.357849,681.066162 
z"/>
<path fill="#000000" opacity="1.000000" stroke="none" 
	d="
M551.255615,683.436340 
	C539.590759,685.705872 531.997742,679.772888 531.838684,667.794067 
	C531.546509,645.804260 531.781433,623.807678 531.712769,601.814270 
	C531.701904,598.348572 533.334106,597.040588 536.570129,597.007568 
	C552.492554,596.844971 550.126709,595.990540 550.196594,609.528320 
	C550.287720,627.189453 550.215759,644.851379 550.217712,662.513000 
	C550.218018,665.341248 550.375671,667.379700 553.688660,669.257202 
	C556.988831,671.127563 556.219055,676.016418 556.200745,679.763855 
	C556.186584,682.646606 553.924316,683.087830 551.255615,683.436340 
z"/>
<path fill="#000000" opacity="1.000000" stroke="none" 
	d="
M564.752930,633.038513 
	C564.752075,632.378967 564.751526,632.212830 564.751526,632.046631 
	C564.750671,620.895203 567.267944,618.906677 578.444702,621.096985 
	C580.928345,621.583740 582.289917,622.840210 582.288513,625.447510 
	C582.279175,643.061707 582.282654,660.675964 582.277954,678.290161 
	C582.277161,681.372498 580.563599,682.840027 577.639282,682.990479 
	C575.484436,683.101379 573.317139,682.973083 571.162537,683.086731 
	C566.397339,683.337891 564.697754,680.942322 564.729858,676.404663 
	C564.830688,662.114441 564.758606,647.822876 564.752930,633.038513 
z"/>
<path fill="#000000" opacity="1.000000" stroke="none" 
	d="
M410.848694,740.984619 
	C413.588715,741.272827 412.983002,738.914978 413.395538,737.670227 
	C415.014191,732.786133 416.326019,727.798584 417.687836,722.831909 
	C418.284851,720.654419 418.859161,718.761536 421.763397,718.679749 
	C424.917542,718.590942 425.592743,720.623962 426.259918,722.976379 
	C428.009399,729.144592 429.826019,735.293823 431.615875,741.450623 
	C432.034973,741.451172 432.454071,741.451721 432.873199,741.452271 
	C434.580841,735.313110 436.311035,729.180115 437.987152,723.032410 
	C438.901245,719.679810 440.439728,717.552734 444.362305,719.366150 
	C445.333618,721.466614 444.134155,723.265991 443.617950,725.107483 
	C441.197449,733.742126 438.692413,742.352966 436.266632,750.986084 
	C435.679260,753.076660 434.793518,754.705933 432.309631,754.723389 
	C429.772888,754.741211 428.965515,752.985413 428.375244,750.952820 
	C426.892853,745.848022 425.368561,740.755371 423.891022,735.649170 
	C423.525482,734.386047 423.438110,732.999817 421.662872,732.112122 
	C419.001709,735.745789 418.586914,740.242798 417.209503,744.345520 
	C416.416412,746.707642 415.770966,749.119141 415.044769,751.504089 
	C414.465454,753.406494 413.425568,754.754822 411.202301,754.746338 
	C408.978607,754.737915 408.034790,753.467651 407.477264,751.466492 
	C404.846893,742.025330 402.106506,732.614929 399.465179,723.176819 
	C399.004211,721.529663 397.867950,719.422180 400.792694,718.836426 
	C403.017395,718.390930 404.647186,719.127930 405.311584,721.576172 
	C407.050507,727.983887 408.886749,734.365051 410.848694,740.984619 
z"/>
<path fill="#000000" opacity="1.000000" stroke="none" 
	d="
M106.664200,736.001221 
	C106.669678,731.182617 106.780792,726.859863 106.644737,722.544800 
	C106.551117,719.575989 107.894119,718.327515 110.719246,718.140869 
	C115.223282,717.843201 119.723206,718.099426 124.129730,718.844177 
	C130.263123,719.880859 133.223282,726.429993 130.322067,732.460510 
	C129.288177,734.609558 129.035324,735.886047 130.645966,738.087830 
	C135.516266,744.745911 131.241730,754.127808 123.067291,754.186707 
	C102.963043,754.331543 107.168709,757.407959 106.667503,739.490662 
	C106.639641,738.494629 106.664230,737.497192 106.664200,736.001221 
M113.248863,746.954407 
	C116.848274,750.211060 120.920250,749.284851 124.555878,747.544250 
	C127.545944,746.112854 127.291298,742.052002 124.370102,740.215515 
	C121.368454,738.328430 117.856934,738.539673 114.807739,739.582031 
	C111.782669,740.616211 113.221497,743.792053 113.248863,746.954407 
M124.585701,729.996826 
	C125.414024,726.476074 123.743996,724.565063 120.465065,723.888000 
	C118.076805,723.394836 115.137032,722.285156 113.580727,724.775879 
	C112.183006,727.012756 112.127197,730.397888 113.723618,732.392700 
	C115.701668,734.864563 118.919960,733.619995 121.636223,732.842529 
	C122.800964,732.509216 123.673752,731.744507 124.585701,729.996826 
z"/>
<path fill="#000000" opacity="1.000000" stroke="none" 
	d="
M375.299377,729.350281 
	C381.593414,728.186035 382.234741,728.629028 382.264954,734.328125 
	C382.298462,740.644165 382.295074,746.961731 382.188904,753.276672 
	C382.108978,758.034119 380.639038,762.202148 376.030365,764.416443 
	C371.034210,766.816833 365.966705,766.448242 361.266541,763.682556 
	C359.440643,762.608215 356.761688,761.020691 358.710907,758.232300 
	C360.433746,755.767761 362.374359,757.305908 364.232269,758.659363 
	C366.768799,760.507202 369.536499,761.459167 372.556763,759.558167 
	C374.838531,758.122070 376.196869,756.307739 375.449249,753.494446 
	C374.922943,753.381409 374.567230,753.180908 374.306000,753.266968 
	C368.229065,755.269714 362.744659,754.829285 358.783508,749.154114 
	C355.590942,744.580200 355.868774,736.978699 359.144409,732.706604 
	C362.575287,728.231995 367.710449,727.118652 375.299377,729.350281 
M364.217102,746.279846 
	C366.810944,749.342529 369.850037,749.673828 372.995056,747.359314 
	C376.302032,744.925720 376.492432,741.342590 375.283173,737.901184 
	C374.300018,735.103394 371.986298,733.077332 368.759155,733.566956 
	C365.022552,734.133850 363.171387,736.877380 362.499329,740.429260 
	C362.138580,742.335815 363.069611,743.985168 364.217102,746.279846 
z"/>
<path fill="#000000" opacity="1.000000" stroke="none" 
	d="
M497.493103,731.360596 
	C502.332581,736.608154 502.929047,742.339233 500.372528,748.308838 
	C498.350983,753.029358 494.390930,755.224854 489.229645,755.330688 
	C485.737091,755.402283 482.542145,753.046204 478.694397,754.805237 
	C476.860596,755.643616 475.839600,753.060181 475.831360,751.071655 
	C475.791199,741.408997 475.789856,731.746216 475.775787,722.083435 
	C475.772858,720.064270 476.263275,718.341370 478.693451,718.266113 
	C481.096100,718.191711 481.822723,719.838928 481.881317,721.869263 
	C481.952545,724.335693 481.898193,726.805725 481.898193,729.750000 
	C487.582245,728.548645 492.678802,727.532227 497.493103,731.360596 
M495.553833,740.077087 
	C495.400970,739.604370 495.287170,739.114502 495.089111,738.661560 
	C493.457550,734.929871 490.651276,733.200012 486.695099,734.491211 
	C482.433868,735.882019 481.665100,739.446228 482.168396,743.371460 
	C482.639709,747.047058 484.440002,749.700867 488.536652,749.670105 
	C492.949829,749.636963 495.062408,746.953430 495.645081,742.830444 
	C495.736908,742.180603 495.648865,741.505371 495.553833,740.077087 
z"/>
<path fill="#000000" opacity="1.000000" stroke="none" 
	d="
M461.120667,749.253906 
	C461.906311,748.877747 462.376038,748.686279 462.788635,748.409485 
	C464.752045,747.092773 466.934753,744.299255 468.933380,747.696777 
	C470.492188,750.346619 467.632507,751.832825 465.795715,753.079895 
	C460.966400,756.358582 454.608429,755.943604 450.478546,752.286133 
	C446.149536,748.452454 444.715698,741.371094 447.127014,735.734070 
	C449.285126,730.688965 454.421875,727.817627 460.093414,728.486023 
	C465.951355,729.176392 469.410950,732.891052 470.739716,739.340454 
	C471.467529,742.872986 470.384674,744.403809 466.802002,744.357300 
	C462.329376,744.299194 457.855438,744.343323 452.916687,744.343323 
	C454.127045,749.076477 456.832031,750.230530 461.120667,749.253906 
M455.868713,734.259949 
	C454.576996,735.225342 453.051514,736.037964 453.365082,738.369629 
	C456.772308,738.915527 460.154602,739.633179 463.900238,737.543091 
	C461.945465,734.550781 460.000000,732.705811 455.868713,734.259949 
z"/>
<path fill="#000000" opacity="1.000000" stroke="none" 
	d="
M559.420532,739.494629 
	C561.682617,731.412903 565.744019,728.265198 572.972961,728.657043 
	C578.927673,728.979736 582.733887,732.865540 583.944214,739.580444 
	C584.521423,742.783508 583.489990,744.356140 580.158691,744.331116 
	C575.551575,744.296448 570.944031,744.322388 566.191772,744.322388 
	C567.691589,749.459717 571.038757,751.054077 575.185547,748.990845 
	C576.064819,748.553345 576.891052,747.933838 577.605103,747.254578 
	C579.350647,745.593872 580.959106,745.980347 582.295959,747.628967 
	C583.843079,749.536987 582.087219,750.688416 580.950928,751.754211 
	C573.781921,758.478577 562.496033,755.297913 559.944763,745.793457 
	C559.438049,743.905823 559.534119,741.856262 559.420532,739.494629 
M574.137756,734.305176 
	C570.040405,732.470398 567.743286,734.327881 565.915588,738.349670 
	C569.943665,739.087891 573.494080,739.514404 577.093323,738.088745 
	C576.785400,736.314148 575.767029,735.477966 574.137756,734.305176 
z"/>
<path fill="#000000" opacity="1.000000" stroke="none" 
	d="
M245.166626,727.822998 
	C253.882095,729.007263 256.300842,731.659973 256.369110,739.726990 
	C256.401459,743.545898 256.303223,747.366211 256.357086,751.184570 
	C256.394562,753.841187 254.833405,755.360840 252.711075,754.185852 
	C250.324402,752.864502 248.629333,753.830017 246.646927,754.430786 
	C244.712357,755.016968 242.759003,755.348450 240.764816,754.785461 
	C236.776978,753.659668 233.785309,751.572449 233.718399,746.958496 
	C233.650787,742.296326 236.671783,740.167480 240.639206,739.060242 
	C243.464874,738.271729 246.636932,738.923218 249.230972,737.093079 
	C248.014709,732.828247 245.343658,731.918640 241.777466,734.909668 
	C239.768738,736.594482 237.720459,738.123657 235.996201,735.568604 
	C234.275818,733.019348 236.839005,731.249756 238.745575,730.098511 
	C240.545364,729.011780 242.736557,728.573242 245.166626,727.822998 
M244.898132,743.382202 
	C242.654037,743.926514 240.064651,744.314941 240.410217,747.444580 
	C240.634338,749.474304 242.513107,749.850037 244.217865,749.616821 
	C247.501328,749.167786 250.035934,747.803223 250.200058,743.952698 
	C248.603928,743.019714 247.113312,743.371216 244.898132,743.382202 
z"/>
<path fill="#000000" opacity="1.000000" stroke="none" 
	d="
M304.312317,741.764954 
	C307.294556,745.690063 310.093079,749.317078 313.432953,753.645813 
	C304.188690,756.305969 303.583191,746.873474 298.216431,744.748718 
	C295.562256,746.010559 296.508026,748.613403 296.349884,750.740479 
	C296.203857,752.705017 296.043549,754.502258 293.471039,754.482239 
	C290.931915,754.462524 290.606506,752.690063 290.607697,750.711365 
	C290.613495,740.904785 290.613800,731.098145 290.639526,721.291565 
	C290.644165,719.522461 290.966064,717.918457 293.252502,717.817383 
	C295.773010,717.705994 296.311584,719.289734 296.311035,721.352539 
	C296.309662,726.327332 296.310608,731.302124 296.310608,736.770630 
	C301.943207,735.078918 303.615112,726.499084 311.098663,729.217407 
	C311.181244,732.876892 307.761200,733.879883 306.062683,736.079956 
	C304.815338,737.695618 302.339722,738.788574 304.312317,741.764954 
z"/>
<path fill="#000000" opacity="1.000000" stroke="none" 
	d="
M198.161377,727.920288 
	C198.411484,725.140747 197.242630,724.180420 194.966476,724.177795 
	C193.304886,724.175842 191.631454,724.118225 189.985443,723.910217 
	C188.449326,723.716248 187.734085,722.693848 187.731415,721.122437 
	C187.728622,719.479858 188.579544,718.566345 190.124466,718.542175 
	C197.601929,718.424805 205.080719,718.339661 212.558838,718.354370 
	C214.361832,718.357910 215.874573,719.171143 215.788406,721.338989 
	C215.701553,723.524231 214.093307,723.973083 212.307831,724.077698 
	C211.311050,724.136169 210.296539,724.249084 209.314087,724.133118 
	C205.214081,723.649597 204.182144,725.677490 204.301086,729.433838 
	C204.517090,736.255127 204.369644,743.088440 204.339584,749.916626 
	C204.330017,752.090515 204.534012,754.582886 201.286957,754.518921 
	C198.170776,754.457458 198.161057,751.966614 198.141785,749.814209 
	C198.077698,742.653748 198.135620,735.492126 198.161377,727.920288 
z"/>
<path fill="#000000" opacity="1.000000" stroke="none" 
	d="
M338.752289,733.859741 
	C335.378052,735.579163 334.444763,738.307922 334.389313,741.474182 
	C334.331146,744.798523 334.336273,748.123901 334.322021,751.448853 
	C334.314758,753.140930 333.783234,754.392029 331.833221,754.472961 
	C329.731415,754.560181 328.759064,753.415222 328.751984,751.441223 
	C328.728058,744.792297 328.735077,738.143066 328.778229,731.494202 
	C328.792175,729.347168 330.373199,728.124573 332.038879,728.881775 
	C334.704773,730.093506 336.759613,728.905273 339.079315,728.259766 
	C344.527618,726.743652 349.935303,729.893494 351.345612,735.512817 
	C352.658264,740.743103 352.009979,746.095459 351.857452,751.398376 
	C351.803650,753.269287 350.818909,754.548157 348.699188,754.436523 
	C346.599884,754.326111 345.828735,752.985718 345.797699,751.105469 
	C345.734558,747.282654 345.768555,743.458008 345.692780,739.635498 
	C345.607635,735.341248 343.569214,733.145203 338.752289,733.859741 
z"/>
<path fill="#000000" opacity="1.000000" stroke="none" 
	d="
M515.566467,733.685059 
	C513.719727,733.501648 512.538208,734.026062 512.341980,735.644836 
	C512.148865,737.237915 513.270508,738.037170 514.594116,738.536316 
	C516.615723,739.298706 518.759460,739.811768 520.665710,740.791626 
	C526.175842,743.623840 526.410828,750.276184 521.218872,753.685547 
	C517.151733,756.356384 510.079163,755.597778 506.795471,752.222107 
	C505.358765,750.745178 505.289764,749.353699 506.646332,747.860535 
	C507.863617,746.520691 509.113495,746.359558 510.517548,747.670349 
	C511.237457,748.342407 512.050171,749.056946 512.952820,749.362183 
	C514.929749,750.030518 517.270142,750.263733 518.177307,748.011719 
	C519.168335,745.551575 516.684509,745.105591 515.078979,744.429321 
	C513.244019,743.656555 511.234039,743.246399 509.490082,742.320740 
	C504.351349,739.592957 504.318817,732.813171 509.340057,729.796631 
	C512.799927,727.718079 519.003601,728.227295 522.037537,730.883789 
	C523.447021,732.117859 524.965332,733.411865 523.129883,735.427673 
	C521.563354,737.148132 520.020081,736.924438 518.400757,735.387512 
	C517.694275,734.716980 516.739258,734.308289 515.566467,733.685059 
z"/>
<path fill="#000000" opacity="1.000000" stroke="none" 
	d="
M267.997070,737.332275 
	C266.983795,739.742737 266.864288,741.854248 267.281067,744.036011 
	C267.800903,746.757141 269.466248,748.548706 271.966064,749.384521 
	C274.383789,750.192871 276.754456,749.495972 278.227264,747.464661 
	C279.910889,745.142700 281.972961,744.097595 283.929993,746.249207 
	C285.861237,748.372498 283.572296,750.249573 282.141449,751.718811 
	C277.652527,756.328552 269.779449,756.279114 264.993073,751.752808 
	C259.809448,746.850952 259.510498,736.987366 264.387665,731.779114 
	C268.811218,727.055237 276.886169,726.524475 281.536621,730.784180 
	C283.054413,732.174438 285.395966,733.886108 283.541718,736.156677 
	C281.654572,738.467590 279.653870,737.256104 277.666626,735.393555 
	C274.201508,732.145935 272.057678,732.643860 267.997070,737.332275 
z"/>
<path fill="#000000" opacity="1.000000" stroke="none" 
	d="
M579.263489,600.527588 
	C583.942505,604.803528 584.673950,609.527466 581.566040,613.373962 
	C578.364502,617.336304 571.780334,618.239990 567.588135,615.167236 
	C564.517639,612.916626 563.098694,609.774780 563.921204,606.019836 
	C564.749878,602.236755 567.411560,600.181213 571.160828,599.372314 
	C573.886047,598.784302 576.420959,599.300476 579.263489,600.527588 
z"/>
<path fill="#000000" opacity="1.000000" stroke="none" 
	d="
M543.476013,726.359009 
	C543.777527,724.094910 543.197693,721.687439 546.195618,721.471741 
	C549.083923,721.264099 549.374207,723.251648 549.368652,725.409180 
	C549.361755,728.075012 551.015259,728.751282 553.290161,728.814941 
	C554.994934,728.862610 556.172729,729.611633 556.200623,731.508301 
	C556.228271,733.393677 555.130615,734.291077 553.388733,734.245483 
	C549.911194,734.154419 549.213867,736.197510 549.353943,739.088867 
	C549.434448,740.750427 549.378906,742.420471 549.336487,744.085571 
	C549.257080,747.203857 549.694214,749.877869 553.772034,749.728088 
	C555.379089,749.669006 556.235291,750.505737 556.416260,752.080078 
	C556.619446,753.847290 555.334473,754.317444 554.056763,754.789368 
	C549.286377,756.551270 544.539246,753.666931 543.841553,748.353882 
	C543.496826,745.728271 543.714417,743.031860 543.618530,740.369629 
	C543.526489,737.814331 544.161499,735.234009 540.710632,733.739563 
	C538.635193,732.840759 538.827454,730.344727 540.968994,728.950378 
	C541.938293,728.319214 543.135376,728.082153 543.476013,726.359009 
z"/>
<path fill="#000000" opacity="1.000000" stroke="none" 
	d="
M153.224960,754.377991 
	C150.730820,753.346130 150.880615,751.419983 150.876526,749.613525 
	C150.855865,740.501648 150.844055,731.389648 150.890854,722.278015 
	C150.901733,720.161499 150.643234,717.649231 153.868332,717.587036 
	C157.353516,717.519836 157.198669,720.137024 157.206177,722.478577 
	C157.235382,731.590454 157.214630,740.702454 157.223969,749.814453 
	C157.226517,752.310364 157.016312,754.609924 153.224960,754.377991 
z"/>
<path fill="#000000" opacity="1.000000" stroke="none" 
	d="
M215.931946,750.457642 
	C215.913345,744.358826 215.894470,738.702698 215.923248,733.046814 
	C215.940216,729.713684 217.265564,727.637146 220.811493,729.356873 
	C223.073730,730.454041 224.582001,728.511780 226.533005,728.704590 
	C228.154816,728.864807 230.210175,728.372070 230.582397,730.587097 
	C230.910019,732.536804 230.179611,734.200256 227.721542,734.363953 
	C223.465424,734.647400 222.150360,737.358582 222.182877,741.176025 
	C222.208374,744.170166 222.205490,747.165283 222.157501,750.159058 
	C222.127930,752.003723 222.168274,754.010559 219.695648,754.392761 
	C217.055740,754.800720 216.140228,753.202393 215.931946,750.457642 
z"/>
<path fill="#000000" opacity="1.000000" stroke="none" 
	d="
M169.574860,718.675659 
	C170.862854,729.772583 170.114197,740.543884 170.287949,751.303345 
	C170.319153,753.234985 169.516876,754.502808 167.406906,754.548157 
	C165.265503,754.594116 164.437149,753.398804 164.552887,751.401062 
	C165.128662,741.462097 163.580017,731.531860 164.492828,721.582031 
	C164.796982,718.266907 166.035736,716.998840 169.574860,718.675659 
z"/>
<path fill="#000000" opacity="1.000000" stroke="none" 
	d="
M144.253143,743.945251 
	C144.209732,746.916931 144.231125,749.404053 144.101044,751.883240 
	C144.023758,753.356384 143.204071,754.403076 141.635742,754.517151 
	C139.957565,754.639099 138.501480,753.959961 138.358337,752.200989 
	C137.780731,745.103394 137.758286,737.989258 138.389679,730.891846 
	C138.528244,729.334229 139.737106,728.750183 141.263550,728.783020 
	C143.087250,728.822327 144.068970,729.800354 144.116730,731.532532 
	C144.226303,735.505737 144.215927,739.482239 144.253143,743.945251 
z"/>
<path fill="#000000" opacity="1.000000" stroke="none" 
	d="
M530.092773,730.595215 
	C533.699524,727.336060 535.593872,728.935669 535.770935,732.607178 
	C536.065186,738.711060 535.875977,744.841919 535.768188,750.959229 
	C535.738525,752.640808 535.292358,754.345764 533.029114,754.385437 
	C530.638733,754.427307 529.824402,752.883545 529.820190,750.853516 
	C529.806519,744.239319 529.888062,737.624939 530.092773,730.595215 
z"/>
<path fill="#000000" opacity="1.000000" stroke="none" 
	d="
M318.355438,754.196899 
	C315.836365,752.209229 316.761200,749.720703 316.707947,747.506531 
	C316.584137,742.360352 316.688049,737.208801 316.697632,732.059387 
	C316.701141,730.170532 317.284058,728.799377 319.501556,728.807861 
	C321.710815,728.816284 322.308594,730.196716 322.310822,732.075439 
	C322.318512,738.553528 322.307495,745.031616 322.319702,751.509705 
	C322.324371,753.984680 320.958588,754.675964 318.355438,754.196899 
z"/>
<path fill="#000000" opacity="1.000000" stroke="none" 
	d="
M320.009766,717.900635 
	C322.526764,718.766479 323.703949,720.179321 322.771729,722.510376 
	C322.180969,723.987549 320.929169,724.874451 319.273590,724.726685 
	C317.622162,724.579285 316.465332,723.557556 316.279175,721.924255 
	C316.008636,719.550842 317.359711,718.280640 320.009766,717.900635 
z"/>
<path fill="#000000" opacity="1.000000" stroke="none" 
	d="
M138.410431,723.091980 
	C137.383774,720.580322 137.735336,718.804138 140.163773,717.993652 
	C141.534409,717.536194 142.830902,717.885803 143.746292,719.058716 
	C144.787842,720.393311 144.863037,721.969543 143.832382,723.213013 
	C142.296860,725.065674 140.436813,725.060181 138.410431,723.091980 
z"/>
<path fill="#000000" opacity="1.000000" stroke="none" 
	d="
M536.167114,721.736816 
	C535.235840,724.291016 533.740540,725.216980 531.495605,724.205505 
	C529.940918,723.505005 529.542297,722.095276 529.805359,720.518555 
	C530.045654,719.078430 530.988403,718.134705 532.405640,717.984131 
	C534.795532,717.730225 536.048828,718.966431 536.167114,721.736816 
z"/>
<path fill="#000000" opacity="1.000000" stroke="none" 
	d="
M309.602112,338.929871 
	C309.189301,327.972076 314.661713,321.196960 323.650970,316.937317 
	C326.745239,315.471039 328.797302,314.095459 329.031067,310.175018 
	C329.270294,306.162903 332.443970,303.958496 336.340668,304.157959 
	C340.150513,304.353027 343.159088,306.520294 343.165955,310.724792 
	C343.171417,314.053772 344.822815,315.333405 347.547852,316.446259 
	C354.541138,319.302063 359.510864,324.140808 361.489868,331.668762 
	C362.463898,335.373840 361.422913,337.268616 357.266541,337.593842 
	C352.125336,337.996185 348.266602,337.530792 345.456818,332.029022 
	C342.692200,326.615692 334.425629,325.824677 329.008911,329.350128 
	C324.752747,332.120209 323.340210,338.204773 326.057800,342.542084 
	C328.232697,346.013275 331.876862,347.347046 335.490387,348.679352 
	C340.167633,350.403839 344.919769,351.957184 349.493011,353.925049 
	C359.040314,358.033203 364.128357,365.520721 363.911896,375.832184 
	C363.698853,385.981354 358.035370,392.991730 348.856750,396.905396 
	C345.361328,398.395813 343.121368,399.740662 342.940308,404.169708 
	C342.786957,407.921417 339.510773,409.486145 335.662842,409.420288 
	C331.643555,409.351501 329.123688,407.259277 328.956940,403.502655 
	C328.800323,399.973663 327.179718,398.615112 324.183167,397.592407 
	C317.356873,395.262634 312.439423,390.725006 309.902191,383.900543 
	C308.822113,380.995361 307.221130,377.739929 311.196899,375.605560 
	C314.905884,373.614471 321.325684,375.036163 323.174377,378.117737 
	C327.410919,385.179657 333.694489,387.841583 340.765015,385.659698 
	C344.972809,384.361237 347.752441,381.676544 348.417297,377.329010 
	C349.088562,372.939667 347.039429,369.566345 343.453552,367.164642 
	C338.242828,363.674622 332.076355,362.563293 326.306610,360.467224 
	C315.075317,356.387054 310.068207,350.079132 309.602112,338.929871 
z"/>
<path fill="#000000" opacity="1.000000" stroke="none" 
	d="
M313.000061,427.696960 
	C334.307190,427.698730 355.114319,427.715820 375.921387,427.688904 
	C379.638245,427.684082 382.888000,428.302582 384.465271,432.272552 
	C386.097565,436.380951 383.846283,440.561035 379.476898,441.259888 
	C378.336670,441.442261 377.152252,441.376892 375.988129,441.377045 
	C344.527771,441.381195 313.067383,441.379059 281.607025,441.377106 
	C280.941223,441.377045 280.274384,441.387878 279.609833,441.356201 
	C275.126984,441.142395 272.232147,438.647766 272.175415,434.962067 
	C272.115234,431.052307 275.140106,427.865417 279.542908,427.762756 
	C287.029480,427.588165 294.522766,427.702148 302.013245,427.696960 
	C305.508850,427.694519 309.004425,427.697021 313.000061,427.696960 
z"/>
<path fill="#000000" opacity="1.000000" stroke="none" 
	d="
M275.421936,468.946106 
	C272.221680,466.656464 270.886566,463.960724 272.189423,460.507690 
	C273.561554,456.871124 276.622314,455.777039 280.201752,455.776520 
	C304.490814,455.773102 328.779999,455.743744 353.068787,455.829742 
	C358.503815,455.849030 361.512054,458.583557 361.523895,462.931091 
	C361.536163,467.438751 358.641266,469.957092 352.542267,469.982910 
	C328.586426,470.084229 304.629913,470.044189 280.673767,469.990204 
	C279.044769,469.986542 277.417023,469.435272 275.421936,468.946106 
z"/>
<path fill="#000000" opacity="1.000000" stroke="none" 
	d="
M329.945801,498.315491 
	C313.794312,498.315582 298.134369,498.316681 282.474426,498.312103 
	C281.142059,498.311707 279.797699,498.381134 278.479584,498.233307 
	C274.400024,497.775848 271.431519,494.628723 271.829926,490.910217 
	C272.266327,486.836731 274.719543,484.674835 278.865082,484.660431 
	C288.694061,484.626251 298.523163,484.627899 308.352234,484.626892 
	C317.848083,484.625916 327.344055,484.667877 336.839783,484.634491 
	C341.239990,484.619019 343.815063,486.741272 344.189026,491.070953 
	C344.532593,495.048279 341.440063,498.004364 336.933197,498.273773 
	C334.774811,498.402802 332.603058,498.308289 329.945801,498.315491 
z"/>
</svg>